<?xml version="1.0" encoding="UTF-8" standalone="no"?>
<!-- Created with Inkscape (http://www.inkscape.org/) -->

<svg
   xmlns:dc="http://purl.org/dc/elements/1.1/"
   xmlns:cc="http://creativecommons.org/ns#"
   xmlns:rdf="http://www.w3.org/1999/02/22-rdf-syntax-ns#"
   xmlns:svg="http://www.w3.org/2000/svg"
   xmlns="http://www.w3.org/2000/svg"
   xmlns:sodipodi="http://sodipodi.sourceforge.net/DTD/sodipodi-0.dtd"
   xmlns:inkscape="http://www.inkscape.org/namespaces/inkscape"
   id="svg2"
   version="1.1"
   inkscape:version="0.91 r13725"
   width="400.04999mm"
   height="400.04999mm"
   viewBox="0 0 1417.5 1417.5"
   sodipodi:docname="intersection-complex.svg">
  <metadata
     id="metadata8">
    <rdf:RDF>
      <cc:Work
         rdf:about="">
        <dc:format>image/svg+xml</dc:format>
        <dc:type
           rdf:resource="http://purl.org/dc/dcmitype/StillImage" />
        <dc:title></dc:title>
      </cc:Work>
    </rdf:RDF>
  </metadata>
  <defs
     id="defs6" />
  <sodipodi:namedview
     pagecolor="#ffffff"
     bordercolor="#666666"
     borderopacity="1"
     objecttolerance="10"
     gridtolerance="10"
     guidetolerance="10"
     inkscape:pageopacity="1"
     inkscape:pageshadow="2"
     inkscape:window-width="1857"
     inkscape:window-height="1056"
     id="namedview4"
     showgrid="false"
     inkscape:document-units="mm"
     units="mm"
     inkscape:snap-intersection-paths="true"
     inkscape:snap-midpoints="false"
     inkscape:object-nodes="true"
     inkscape:object-paths="true"
     inkscape:snap-smooth-nodes="true"
     inkscape:zoom="0.35355339"
     inkscape:cx="302.16673"
     inkscape:cy="735.58652"
     inkscape:window-x="1983"
     inkscape:window-y="24"
     inkscape:window-maximized="1"
     inkscape:current-layer="layer2" />
  <g
     inkscape:groupmode="layer"
     id="layer2"
     inkscape:label="Hranice"
     style="display:inline">
    <rect
       style="opacity:1;fill:#cecece;fill-opacity:1;fill-rule:evenodd;stroke:#cecece;stroke-width:85.03936768;stroke-linecap:square;stroke-linejoin:miter;stroke-miterlimit:4;stroke-dasharray:none;stroke-dashoffset:0;stroke-opacity:1"
       id="rect4153"
       width="1332.2834"
       height="1332.2834"
       x="42.519684"
       y="42.696827" />
    <g
       id="g4488">
      <path
         sodipodi:nodetypes="ccccc"
         inkscape:connector-curvature="0"
         id="path4142-3-62"
         d="m 885.91533,354.41924 0,177.16536 0,177.16535 0,177.16544 0,177.16531"
         style="display:inline;fill:none;fill-opacity:1;fill-rule:evenodd;stroke:#000000;stroke-width:85.03936768;stroke-linecap:butt;stroke-linejoin:miter;stroke-miterlimit:4;stroke-dasharray:none;stroke-opacity:1" />
      <path
         sodipodi:nodetypes="ccccc"
         inkscape:connector-curvature="0"
         id="path4142-3-62-9"
         d="m 1063.0806,531.5846 -177.16527,0 -177.16535,0 -177.16544,0 -177.16531,0"
         style="display:inline;fill:none;fill-opacity:1;fill-rule:evenodd;stroke:#000000;stroke-width:85.03936768;stroke-linecap:butt;stroke-linejoin:miter;stroke-miterlimit:4;stroke-dasharray:none;stroke-opacity:1" />
      <path
         sodipodi:nodetypes="ccccc"
         inkscape:connector-curvature="0"
         id="path4142-3-62-9-1"
         d="m 1063.0806,885.91539 -177.16527,0 -177.16536,0 -177.16544,0 -177.16531,0"
         style="display:inline;fill:none;fill-opacity:1;fill-rule:evenodd;stroke:#000000;stroke-width:85.03936768;stroke-linecap:butt;stroke-linejoin:miter;stroke-miterlimit:4;stroke-dasharray:none;stroke-opacity:1" />
      <path
         sodipodi:nodetypes="ccccc"
         inkscape:connector-curvature="0"
         id="path4142-3-62-2"
         d="m 531.58453,354.41924 0,177.16536 0,177.16535 0,177.16544 0,177.16531"
         style="display:inline;fill:none;fill-opacity:1;fill-rule:evenodd;stroke:#000000;stroke-width:85.03936768;stroke-linecap:butt;stroke-linejoin:miter;stroke-miterlimit:4;stroke-dasharray:none;stroke-opacity:1" />
      <path
         transform="scale(-1,-1)"
         sodipodi:open="true"
         d="m -1063.0807,-531.58458 a 177.16536,177.16536 0 0 1 -153.4297,-88.58268 177.16536,177.16536 0 0 1 0,-177.16536 177.16536,177.16536 0 0 1 153.4297,-88.58268"
         sodipodi:end="4.712389"
         sodipodi:start="1.5707963"
         sodipodi:ry="177.16536"
         sodipodi:rx="177.16536"
         sodipodi:cy="-708.74994"
         sodipodi:cx="-1063.0807"
         sodipodi:type="arc"
         id="path4199-5-3-7"
         style="display:inline;fill:none;fill-opacity:1;fill-rule:evenodd;stroke:#000000;stroke-width:85.03936768;stroke-linecap:square;stroke-linejoin:miter;stroke-miterlimit:4;stroke-dasharray:none;stroke-dashoffset:0;stroke-opacity:1" />
      <path
         transform="matrix(0,-1,1,0,0,0)"
         sodipodi:open="true"
         d="m -1063.0807,885.91536 a 177.16536,177.16536 0 0 1 -153.4297,-88.58268 177.16536,177.16536 0 0 1 0,-177.16536 177.16536,177.16536 0 0 1 153.4297,-88.58268"
         sodipodi:end="4.712389"
         sodipodi:start="1.5707963"
         sodipodi:ry="177.16536"
         sodipodi:rx="177.16536"
         sodipodi:cy="708.75"
         sodipodi:cx="-1063.0807"
         sodipodi:type="arc"
         id="path4199-5-3-7-0"
         style="display:inline;fill:none;fill-opacity:1;fill-rule:evenodd;stroke:#000000;stroke-width:85.03936768;stroke-linecap:square;stroke-linejoin:miter;stroke-miterlimit:4;stroke-dasharray:none;stroke-dashoffset:0;stroke-opacity:1" />
      <path
         transform="scale(1,-1)"
         sodipodi:open="true"
         d="m 354.41922,-531.58458 a 177.16536,177.16536 0 0 1 -153.4297,-88.58268 177.16536,177.16536 0 0 1 0,-177.16536 177.16536,177.16536 0 0 1 153.4297,-88.58268"
         sodipodi:end="4.712389"
         sodipodi:start="1.5707963"
         sodipodi:ry="177.16536"
         sodipodi:rx="177.16536"
         sodipodi:cy="-708.74994"
         sodipodi:cx="354.41922"
         sodipodi:type="arc"
         id="path4199-5-3-7-9"
         style="display:inline;fill:none;fill-opacity:1;fill-rule:evenodd;stroke:#000000;stroke-width:85.03936768;stroke-linecap:square;stroke-linejoin:miter;stroke-miterlimit:4;stroke-dasharray:none;stroke-dashoffset:0;stroke-opacity:1" />
      <path
         transform="matrix(0,1,1,0,0,0)"
         sodipodi:open="true"
         d="m 354.41926,885.91536 a 177.16536,177.16536 0 0 1 -153.42971,-88.58268 177.16536,177.16536 0 0 1 0,-177.16536 177.16536,177.16536 0 0 1 153.4297,-88.58268"
         sodipodi:end="4.712389"
         sodipodi:start="1.5707963"
         sodipodi:ry="177.16536"
         sodipodi:rx="177.16536"
         sodipodi:cy="708.75"
         sodipodi:cx="354.41925"
         sodipodi:type="arc"
         id="path4199-5-3-7-9-3"
         style="display:inline;fill:none;fill-opacity:1;fill-rule:evenodd;stroke:#000000;stroke-width:85.03936768;stroke-linecap:square;stroke-linejoin:miter;stroke-miterlimit:4;stroke-dasharray:none;stroke-dashoffset:0;stroke-opacity:1" />
    </g>
  </g>
  <g
     inkscape:groupmode="layer"
     id="layer1"
     inkscape:label="Cesty"
     style="display:inline">
    <g
       id="g4245"
       transform="translate(-11.592917,-19.615836)" />
    <g
       transform="translate(-11.592917,-19.615836)"
       id="g4346">
      <path
         style="fill:none;fill-opacity:1;fill-rule:evenodd;stroke:#ffffff;stroke-width:70.86614227;stroke-linecap:butt;stroke-linejoin:miter;stroke-miterlimit:4;stroke-dasharray:none;stroke-opacity:1"
         d="m 366.0122,551.20044 177.16535,0 177.16535,0 177.16535,0 177.16535,0"
         id="path4142"
         inkscape:connector-curvature="0"
         sodipodi:nodetypes="ccccc" />
      <path
         style="fill:none;fill-opacity:1;fill-rule:evenodd;stroke:#ffffff;stroke-width:70.86614227;stroke-linecap:butt;stroke-linejoin:miter;stroke-miterlimit:4;stroke-dasharray:none;stroke-opacity:1"
         d="m 543.17755,374.03509 0,177.16535 0,177.16535 0,177.16544 0,177.16527"
         id="path4142-3"
         inkscape:connector-curvature="0"
         sodipodi:nodetypes="ccccc" />
      <path
         style="fill:none;fill-opacity:1;fill-rule:evenodd;stroke:#ffffff;stroke-width:70.86614227;stroke-linecap:butt;stroke-linejoin:miter;stroke-miterlimit:4;stroke-dasharray:none;stroke-opacity:1"
         d="m 897.50825,374.03509 0,177.16535 0,177.16535 0,177.16544 0,177.16527"
         id="path4142-3-6"
         inkscape:connector-curvature="0"
         sodipodi:nodetypes="ccccc" />
      <path
         style="fill:none;fill-opacity:1;fill-rule:evenodd;stroke:#ffffff;stroke-width:70.86614227;stroke-linecap:butt;stroke-linejoin:miter;stroke-miterlimit:4;stroke-dasharray:none;stroke-opacity:1"
         d="m 366.0122,905.53123 177.16535,0 177.16535,0 177.16535,0 177.16535,0"
         id="path4142-7"
         inkscape:connector-curvature="0"
         sodipodi:nodetypes="ccccc" />
      <path
         style="fill:none;fill-opacity:1;fill-rule:evenodd;stroke:#ffffff;stroke-width:70.86614227;stroke-linecap:square;stroke-linejoin:miter;stroke-miterlimit:4;stroke-dasharray:none;stroke-dashoffset:0;stroke-opacity:1"
         id="path4199"
         sodipodi:type="arc"
         sodipodi:cx="366.01221"
         sodipodi:cy="728.36578"
         sodipodi:rx="177.16536"
         sodipodi:ry="177.16536"
         sodipodi:start="1.5707963"
         sodipodi:end="4.712389"
         d="m 366.01221,905.53114 a 177.16536,177.16536 0 0 1 -153.4297,-88.58267 177.16536,177.16536 0 0 1 0,-177.16537 177.16536,177.16536 0 0 1 153.4297,-88.58268"
         sodipodi:open="true" />
      <path
         style="fill:none;fill-opacity:1;fill-rule:evenodd;stroke:#ffffff;stroke-width:70.86614227;stroke-linecap:square;stroke-linejoin:miter;stroke-miterlimit:4;stroke-dasharray:none;stroke-dashoffset:0;stroke-opacity:1"
         id="path4199-5"
         sodipodi:type="arc"
         sodipodi:cx="374.0351"
         sodipodi:cy="-720.3429"
         sodipodi:rx="177.16536"
         sodipodi:ry="177.16536"
         sodipodi:start="1.5707963"
         sodipodi:end="4.712389"
         d="m 374.0351,-543.17754 a 177.16536,177.16536 0 0 1 -153.42971,-88.58267 177.16536,177.16536 0 0 1 0,-177.16537 177.16536,177.16536 0 0 1 153.42971,-88.58268"
         sodipodi:open="true"
         transform="matrix(0,1,-1,0,0,0)" />
      <path
         style="fill:none;fill-opacity:1;fill-rule:evenodd;stroke:#ffffff;stroke-width:70.86614227;stroke-linecap:square;stroke-linejoin:miter;stroke-miterlimit:4;stroke-dasharray:none;stroke-dashoffset:0;stroke-opacity:1"
         id="path4199-5-3"
         sodipodi:type="arc"
         sodipodi:cx="-1074.6736"
         sodipodi:cy="-728.36578"
         sodipodi:rx="177.16536"
         sodipodi:ry="177.16536"
         sodipodi:start="1.5707963"
         sodipodi:end="4.712389"
         d="m -1074.6736,-551.20042 a 177.16536,177.16536 0 0 1 -153.4297,-88.58268 177.16536,177.16536 0 0 1 0,-177.16536 177.16536,177.16536 0 0 1 153.4297,-88.58268"
         sodipodi:open="true"
         transform="scale(-1,-1)" />
      <path
         style="fill:none;fill-opacity:1;fill-rule:evenodd;stroke:#ffffff;stroke-width:70.86614227;stroke-linecap:square;stroke-linejoin:miter;stroke-miterlimit:4;stroke-dasharray:none;stroke-dashoffset:0;stroke-opacity:1"
         id="path4199-5-5"
         sodipodi:type="arc"
         sodipodi:cx="-1082.6965"
         sodipodi:cy="720.3429"
         sodipodi:rx="177.16536"
         sodipodi:ry="177.16536"
         sodipodi:start="1.5707963"
         sodipodi:end="4.712389"
         d="m -1082.6965,897.50826 a 177.16536,177.16536 0 0 1 -153.4297,-88.58268 177.16536,177.16536 0 0 1 0,-177.16536 177.16536,177.16536 0 0 1 153.4297,-88.58268"
         sodipodi:open="true"
         transform="matrix(0,-1,1,0,0,0)" />
    </g>
  </g>
</svg>
